<?xml version="1.0" encoding="utf-8"?><svg width="auto" height="5320" style="overflow:visible " version="1.1" xmlns="http://www.w3.org/2000/svg"><rect x="20" y="20" width="200" height="40" style="fill:white;stroke:black;stroke-width:1" /><text x="30" y="30" font-size="10" style="fill:blue">arbolGenialogico</text><rect x="240" y="20" width="200" height="40" style="fill:white;stroke:black;stroke-width:1" /><text x="250" y="30" font-size="10" style="fill:blue">persona</text><path d="M220 40 C240 40 220 40 240 40" style="fill:transparent;stroke:black" /><text x="250" y="40" font-size="8" style="fill:black">nombre: Raúl</text><text x="250" y="50" font-size="8" style="fill:black">apellidos: Álvarez Álvarez</text><text x="250" y="60" font-size="8" style="fill:black">fechaNacimiento: 31 marzo 1999</text><rect x="460" y="20" width="200" height="40" style="fill:white;stroke:black;stroke-width:1" /><text x="470" y="30" font-size="10" style="fill:blue">lugarNacimiento</text><path d="M440 40 C460 40 440 40 460 40" style="fill:transparent;stroke:black" /><rect x="526" y="20" width="137" height="40" style="fill:green;stroke:black;stroke-width:1" /><text x="536" y="30" font-size="8" style="fill:white">Avilés</text><rect x="460" y="70" width="200" height="40" style="fill:white;stroke:black;stroke-width:1" /><text x="470" y="80" font-size="10" style="fill:blue">coordenadasNacimiento</text><path d="M440 40 C460 40 440 90 460 90" style="fill:transparent;stroke:black" /><rect x="526" y="70" width="137" height="40" style="fill:green;stroke:black;stroke-width:1" /><text x="536" y="80" font-size="8" style="fill:white">43.55187634443899, -5.936023851831471</text><rect x="460" y="120" width="200" height="40" style="fill:white;stroke:black;stroke-width:1" /><text x="470" y="130" font-size="10" style="fill:blue">fechaFallecimiento</text><path d="M440 40 C460 40 440 140 460 140" style="fill:transparent;stroke:black" /><rect x="526" y="120" width="137" height="40" style="fill:green;stroke:black;stroke-width:1" /><text x="536" y="130" font-size="8" style="fill:white">-</text><rect x="460" y="170" width="200" height="40" style="fill:white;stroke:black;stroke-width:1" /><text x="470" y="180" font-size="10" style="fill:blue">coordenadasFallecimiento</text><path d="M440 40 C460 40 440 190 460 190" style="fill:transparent;stroke:black" /><rect x="526" y="170" width="137" height="40" style="fill:green;stroke:black;stroke-width:1" /><text x="536" y="180" font-size="8" style="fill:white">-</text><rect x="460" y="220" width="200" height="40" style="fill:white;stroke:black;stroke-width:1" /><text x="470" y="230" font-size="10" style="fill:blue">fotografia</text><path d="M440 40 C460 40 440 240 460 240" style="fill:transparent;stroke:black" /><rect x="460" y="270" width="200" height="40" style="fill:white;stroke:black;stroke-width:1" /><text x="470" y="280" font-size="10" style="fill:blue">comentarios</text><path d="M440 40 C460 40 440 290 460 290" style="fill:transparent;stroke:black" /><rect x="526" y="270" width="137" height="40" style="fill:green;stroke:black;stroke-width:1" /><text x="536" y="280" font-size="8" style="fill:white">Soy yo</text><rect x="460" y="320" width="200" height="40" style="fill:white;stroke:black;stroke-width:1" /><text x="470" y="330" font-size="10" style="fill:blue">persona</text><path d="M440 40 C460 40 440 340 460 340" style="fill:transparent;stroke:black" /><text x="470" y="340" font-size="8" style="fill:black">nombre: Padre</text><text x="470" y="350" font-size="8" style="fill:black">apellidos: Álvarez Álvarez</text><text x="470" y="360" font-size="8" style="fill:black">fechaNacimiento: 31 marzo 1999</text><rect x="680" y="320" width="200" height="40" style="fill:white;stroke:black;stroke-width:1" /><text x="690" y="330" font-size="10" style="fill:blue">lugarNacimiento</text><path d="M660 340 C680 340 660 340 680 340" style="fill:transparent;stroke:black" /><rect x="746" y="320" width="137" height="40" style="fill:green;stroke:black;stroke-width:1" /><text x="756" y="330" font-size="8" style="fill:white">Avilés</text><rect x="680" y="370" width="200" height="40" style="fill:white;stroke:black;stroke-width:1" /><text x="690" y="380" font-size="10" style="fill:blue">coordenadasNacimiento</text><path d="M660 340 C680 340 660 390 680 390" style="fill:transparent;stroke:black" /><rect x="746" y="370" width="137" height="40" style="fill:green;stroke:black;stroke-width:1" /><text x="756" y="380" font-size="8" style="fill:white">43.55187634443899, -5.936023851831471</text><rect x="680" y="420" width="200" height="40" style="fill:white;stroke:black;stroke-width:1" /><text x="690" y="430" font-size="10" style="fill:blue">fechaFallecimiento</text><path d="M660 340 C680 340 660 440 680 440" style="fill:transparent;stroke:black" /><rect x="746" y="420" width="137" height="40" style="fill:green;stroke:black;stroke-width:1" /><text x="756" y="430" font-size="8" style="fill:white">-</text><rect x="680" y="470" width="200" height="40" style="fill:white;stroke:black;stroke-width:1" /><text x="690" y="480" font-size="10" style="fill:blue">coordenadasFallecimiento</text><path d="M660 340 C680 340 660 490 680 490" style="fill:transparent;stroke:black" /><rect x="746" y="470" width="137" height="40" style="fill:green;stroke:black;stroke-width:1" /><text x="756" y="480" font-size="8" style="fill:white">-</text><rect x="680" y="520" width="200" height="40" style="fill:white;stroke:black;stroke-width:1" /><text x="690" y="530" font-size="10" style="fill:blue">fotografia</text><path d="M660 340 C680 340 660 540 680 540" style="fill:transparent;stroke:black" /><rect x="680" y="570" width="200" height="40" style="fill:white;stroke:black;stroke-width:1" /><text x="690" y="580" font-size="10" style="fill:blue">comentarios</text><path d="M660 340 C680 340 660 590 680 590" style="fill:transparent;stroke:black" /><rect x="746" y="570" width="137" height="40" style="fill:green;stroke:black;stroke-width:1" /><text x="756" y="580" font-size="8" style="fill:white">Soy yo</text><rect x="680" y="620" width="200" height="40" style="fill:white;stroke:black;stroke-width:1" /><text x="690" y="630" font-size="10" style="fill:blue">persona</text><path d="M660 340 C680 340 660 640 680 640" style="fill:transparent;stroke:black" /><text x="690" y="640" font-size="8" style="fill:black">nombre: Abuelo paterno</text><text x="690" y="650" font-size="8" style="fill:black">apellidos: Álvarez Álvarez</text><text x="690" y="660" font-size="8" style="fill:black">fechaNacimiento: 31 marzo 1999</text><rect x="900" y="620" width="200" height="40" style="fill:white;stroke:black;stroke-width:1" /><text x="910" y="630" font-size="10" style="fill:blue">lugarNacimiento</text><path d="M880 640 C900 640 880 640 900 640" style="fill:transparent;stroke:black" /><rect x="966" y="620" width="137" height="40" style="fill:green;stroke:black;stroke-width:1" /><text x="976" y="630" font-size="8" style="fill:white">Avilés</text><rect x="900" y="670" width="200" height="40" style="fill:white;stroke:black;stroke-width:1" /><text x="910" y="680" font-size="10" style="fill:blue">coordenadasNacimiento</text><path d="M880 640 C900 640 880 690 900 690" style="fill:transparent;stroke:black" /><rect x="966" y="670" width="137" height="40" style="fill:green;stroke:black;stroke-width:1" /><text x="976" y="680" font-size="8" style="fill:white">43.55187634443899, -5.936023851831471</text><rect x="900" y="720" width="200" height="40" style="fill:white;stroke:black;stroke-width:1" /><text x="910" y="730" font-size="10" style="fill:blue">fechaFallecimiento</text><path d="M880 640 C900 640 880 740 900 740" style="fill:transparent;stroke:black" /><rect x="966" y="720" width="137" height="40" style="fill:green;stroke:black;stroke-width:1" /><text x="976" y="730" font-size="8" style="fill:white">-</text><rect x="900" y="770" width="200" height="40" style="fill:white;stroke:black;stroke-width:1" /><text x="910" y="780" font-size="10" style="fill:blue">coordenadasFallecimiento</text><path d="M880 640 C900 640 880 790 900 790" style="fill:transparent;stroke:black" /><rect x="966" y="770" width="137" height="40" style="fill:green;stroke:black;stroke-width:1" /><text x="976" y="780" font-size="8" style="fill:white">-</text><rect x="900" y="820" width="200" height="40" style="fill:white;stroke:black;stroke-width:1" /><text x="910" y="830" font-size="10" style="fill:blue">fotografia</text><path d="M880 640 C900 640 880 840 900 840" style="fill:transparent;stroke:black" /><rect x="900" y="870" width="200" height="40" style="fill:white;stroke:black;stroke-width:1" /><text x="910" y="880" font-size="10" style="fill:blue">comentarios</text><path d="M880 640 C900 640 880 890 900 890" style="fill:transparent;stroke:black" /><rect x="966" y="870" width="137" height="40" style="fill:green;stroke:black;stroke-width:1" /><text x="976" y="880" font-size="8" style="fill:white">Soy yo</text><rect x="900" y="920" width="200" height="40" style="fill:white;stroke:black;stroke-width:1" /><text x="910" y="930" font-size="10" style="fill:blue">persona</text><path d="M880 640 C900 640 880 940 900 940" style="fill:transparent;stroke:black" /><text x="910" y="940" font-size="8" style="fill:black">nombre: Bisabuelo p1</text><text x="910" y="950" font-size="8" style="fill:black">apellidos: Álvarez Álvarez</text><text x="910" y="960" font-size="8" style="fill:black">fechaNacimiento: 31 marzo 1999</text><rect x="1120" y="920" width="200" height="40" style="fill:white;stroke:black;stroke-width:1" /><text x="1130" y="930" font-size="10" style="fill:blue">lugarNacimiento</text><path d="M1100 940 C1120 940 1100 940 1120 940" style="fill:transparent;stroke:black" /><rect x="1186" y="920" width="137" height="40" style="fill:green;stroke:black;stroke-width:1" /><text x="1196" y="930" font-size="8" style="fill:white">Avilés</text><rect x="1120" y="970" width="200" height="40" style="fill:white;stroke:black;stroke-width:1" /><text x="1130" y="980" font-size="10" style="fill:blue">coordenadasNacimiento</text><path d="M1100 940 C1120 940 1100 990 1120 990" style="fill:transparent;stroke:black" /><rect x="1186" y="970" width="137" height="40" style="fill:green;stroke:black;stroke-width:1" /><text x="1196" y="980" font-size="8" style="fill:white">43.55187634443899, -5.936023851831471</text><rect x="1120" y="1020" width="200" height="40" style="fill:white;stroke:black;stroke-width:1" /><text x="1130" y="1030" font-size="10" style="fill:blue">fechaFallecimiento</text><path d="M1100 940 C1120 940 1100 1040 1120 1040" style="fill:transparent;stroke:black" /><rect x="1186" y="1020" width="137" height="40" style="fill:green;stroke:black;stroke-width:1" /><text x="1196" y="1030" font-size="8" style="fill:white">-</text><rect x="1120" y="1070" width="200" height="40" style="fill:white;stroke:black;stroke-width:1" /><text x="1130" y="1080" font-size="10" style="fill:blue">coordenadasFallecimiento</text><path d="M1100 940 C1120 940 1100 1090 1120 1090" style="fill:transparent;stroke:black" /><rect x="1186" y="1070" width="137" height="40" style="fill:green;stroke:black;stroke-width:1" /><text x="1196" y="1080" font-size="8" style="fill:white">-</text><rect x="1120" y="1120" width="200" height="40" style="fill:white;stroke:black;stroke-width:1" /><text x="1130" y="1130" font-size="10" style="fill:blue">fotografia</text><path d="M1100 940 C1120 940 1100 1140 1120 1140" style="fill:transparent;stroke:black" /><rect x="1120" y="1170" width="200" height="40" style="fill:white;stroke:black;stroke-width:1" /><text x="1130" y="1180" font-size="10" style="fill:blue">comentarios</text><path d="M1100 940 C1120 940 1100 1190 1120 1190" style="fill:transparent;stroke:black" /><rect x="1186" y="1170" width="137" height="40" style="fill:green;stroke:black;stroke-width:1" /><text x="1196" y="1180" font-size="8" style="fill:white">Soy yo</text><rect x="900" y="1270" width="200" height="40" style="fill:white;stroke:black;stroke-width:1" /><text x="910" y="1280" font-size="10" style="fill:blue">persona</text><path d="M880 640 C900 640 880 1290 900 1290" style="fill:transparent;stroke:black" /><text x="910" y="1290" font-size="8" style="fill:black">nombre: Bisabuela p1</text><text x="910" y="1300" font-size="8" style="fill:black">apellidos: Álvarez Álvarez</text><text x="910" y="1310" font-size="8" style="fill:black">fechaNacimiento: 31 marzo 1999</text><rect x="1120" y="1270" width="200" height="40" style="fill:white;stroke:black;stroke-width:1" /><text x="1130" y="1280" font-size="10" style="fill:blue">lugarNacimiento</text><path d="M1100 1290 C1120 1290 1100 1290 1120 1290" style="fill:transparent;stroke:black" /><rect x="1186" y="1270" width="137" height="40" style="fill:green;stroke:black;stroke-width:1" /><text x="1196" y="1280" font-size="8" style="fill:white">Avilés</text><rect x="1120" y="1320" width="200" height="40" style="fill:white;stroke:black;stroke-width:1" /><text x="1130" y="1330" font-size="10" style="fill:blue">coordenadasNacimiento</text><path d="M1100 1290 C1120 1290 1100 1340 1120 1340" style="fill:transparent;stroke:black" /><rect x="1186" y="1320" width="137" height="40" style="fill:green;stroke:black;stroke-width:1" /><text x="1196" y="1330" font-size="8" style="fill:white">43.55187634443899, -5.936023851831471</text><rect x="1120" y="1370" width="200" height="40" style="fill:white;stroke:black;stroke-width:1" /><text x="1130" y="1380" font-size="10" style="fill:blue">fechaFallecimiento</text><path d="M1100 1290 C1120 1290 1100 1390 1120 1390" style="fill:transparent;stroke:black" /><rect x="1186" y="1370" width="137" height="40" style="fill:green;stroke:black;stroke-width:1" /><text x="1196" y="1380" font-size="8" style="fill:white">-</text><rect x="1120" y="1420" width="200" height="40" style="fill:white;stroke:black;stroke-width:1" /><text x="1130" y="1430" font-size="10" style="fill:blue">coordenadasFallecimiento</text><path d="M1100 1290 C1120 1290 1100 1440 1120 1440" style="fill:transparent;stroke:black" /><rect x="1186" y="1420" width="137" height="40" style="fill:green;stroke:black;stroke-width:1" /><text x="1196" y="1430" font-size="8" style="fill:white">-</text><rect x="1120" y="1470" width="200" height="40" style="fill:white;stroke:black;stroke-width:1" /><text x="1130" y="1480" font-size="10" style="fill:blue">fotografia</text><path d="M1100 1290 C1120 1290 1100 1490 1120 1490" style="fill:transparent;stroke:black" /><rect x="1120" y="1520" width="200" height="40" style="fill:white;stroke:black;stroke-width:1" /><text x="1130" y="1530" font-size="10" style="fill:blue">comentarios</text><path d="M1100 1290 C1120 1290 1100 1540 1120 1540" style="fill:transparent;stroke:black" /><rect x="1186" y="1520" width="137" height="40" style="fill:green;stroke:black;stroke-width:1" /><text x="1196" y="1530" font-size="8" style="fill:white">Soy yo</text><rect x="680" y="1670" width="200" height="40" style="fill:white;stroke:black;stroke-width:1" /><text x="690" y="1680" font-size="10" style="fill:blue">persona</text><path d="M660 340 C680 340 660 1690 680 1690" style="fill:transparent;stroke:black" /><text x="690" y="1690" font-size="8" style="fill:black">nombre: abuela paterna</text><text x="690" y="1700" font-size="8" style="fill:black">apellidos: Álvarez Álvarez</text><text x="690" y="1710" font-size="8" style="fill:black">fechaNacimiento: 31 marzo 1999</text><rect x="900" y="1670" width="200" height="40" style="fill:white;stroke:black;stroke-width:1" /><text x="910" y="1680" font-size="10" style="fill:blue">lugarNacimiento</text><path d="M880 1690 C900 1690 880 1690 900 1690" style="fill:transparent;stroke:black" /><rect x="966" y="1670" width="137" height="40" style="fill:green;stroke:black;stroke-width:1" /><text x="976" y="1680" font-size="8" style="fill:white">Avilés</text><rect x="900" y="1720" width="200" height="40" style="fill:white;stroke:black;stroke-width:1" /><text x="910" y="1730" font-size="10" style="fill:blue">coordenadasNacimiento</text><path d="M880 1690 C900 1690 880 1740 900 1740" style="fill:transparent;stroke:black" /><rect x="966" y="1720" width="137" height="40" style="fill:green;stroke:black;stroke-width:1" /><text x="976" y="1730" font-size="8" style="fill:white">43.55187634443899, -5.936023851831471</text><rect x="900" y="1770" width="200" height="40" style="fill:white;stroke:black;stroke-width:1" /><text x="910" y="1780" font-size="10" style="fill:blue">fechaFallecimiento</text><path d="M880 1690 C900 1690 880 1790 900 1790" style="fill:transparent;stroke:black" /><rect x="966" y="1770" width="137" height="40" style="fill:green;stroke:black;stroke-width:1" /><text x="976" y="1780" font-size="8" style="fill:white">-</text><rect x="900" y="1820" width="200" height="40" style="fill:white;stroke:black;stroke-width:1" /><text x="910" y="1830" font-size="10" style="fill:blue">coordenadasFallecimiento</text><path d="M880 1690 C900 1690 880 1840 900 1840" style="fill:transparent;stroke:black" /><rect x="966" y="1820" width="137" height="40" style="fill:green;stroke:black;stroke-width:1" /><text x="976" y="1830" font-size="8" style="fill:white">-</text><rect x="900" y="1870" width="200" height="40" style="fill:white;stroke:black;stroke-width:1" /><text x="910" y="1880" font-size="10" style="fill:blue">fotografia</text><path d="M880 1690 C900 1690 880 1890 900 1890" style="fill:transparent;stroke:black" /><rect x="900" y="1920" width="200" height="40" style="fill:white;stroke:black;stroke-width:1" /><text x="910" y="1930" font-size="10" style="fill:blue">comentarios</text><path d="M880 1690 C900 1690 880 1940 900 1940" style="fill:transparent;stroke:black" /><rect x="966" y="1920" width="137" height="40" style="fill:green;stroke:black;stroke-width:1" /><text x="976" y="1930" font-size="8" style="fill:white">Soy yo</text><rect x="900" y="1970" width="200" height="40" style="fill:white;stroke:black;stroke-width:1" /><text x="910" y="1980" font-size="10" style="fill:blue">persona</text><path d="M880 1690 C900 1690 880 1990 900 1990" style="fill:transparent;stroke:black" /><text x="910" y="1990" font-size="8" style="fill:black">nombre: Bisabuelo p2</text><text x="910" y="2000" font-size="8" style="fill:black">apellidos: Álvarez Álvarez</text><text x="910" y="2010" font-size="8" style="fill:black">fechaNacimiento: 31 marzo 1999</text><rect x="1120" y="1970" width="200" height="40" style="fill:white;stroke:black;stroke-width:1" /><text x="1130" y="1980" font-size="10" style="fill:blue">lugarNacimiento</text><path d="M1100 1990 C1120 1990 1100 1990 1120 1990" style="fill:transparent;stroke:black" /><rect x="1186" y="1970" width="137" height="40" style="fill:green;stroke:black;stroke-width:1" /><text x="1196" y="1980" font-size="8" style="fill:white">Avilés</text><rect x="1120" y="2020" width="200" height="40" style="fill:white;stroke:black;stroke-width:1" /><text x="1130" y="2030" font-size="10" style="fill:blue">coordenadasNacimiento</text><path d="M1100 1990 C1120 1990 1100 2040 1120 2040" style="fill:transparent;stroke:black" /><rect x="1186" y="2020" width="137" height="40" style="fill:green;stroke:black;stroke-width:1" /><text x="1196" y="2030" font-size="8" style="fill:white">43.55187634443899, -5.936023851831471</text><rect x="1120" y="2070" width="200" height="40" style="fill:white;stroke:black;stroke-width:1" /><text x="1130" y="2080" font-size="10" style="fill:blue">fechaFallecimiento</text><path d="M1100 1990 C1120 1990 1100 2090 1120 2090" style="fill:transparent;stroke:black" /><rect x="1186" y="2070" width="137" height="40" style="fill:green;stroke:black;stroke-width:1" /><text x="1196" y="2080" font-size="8" style="fill:white">-</text><rect x="1120" y="2120" width="200" height="40" style="fill:white;stroke:black;stroke-width:1" /><text x="1130" y="2130" font-size="10" style="fill:blue">coordenadasFallecimiento</text><path d="M1100 1990 C1120 1990 1100 2140 1120 2140" style="fill:transparent;stroke:black" /><rect x="1186" y="2120" width="137" height="40" style="fill:green;stroke:black;stroke-width:1" /><text x="1196" y="2130" font-size="8" style="fill:white">-</text><rect x="1120" y="2170" width="200" height="40" style="fill:white;stroke:black;stroke-width:1" /><text x="1130" y="2180" font-size="10" style="fill:blue">fotografia</text><path d="M1100 1990 C1120 1990 1100 2190 1120 2190" style="fill:transparent;stroke:black" /><rect x="1120" y="2220" width="200" height="40" style="fill:white;stroke:black;stroke-width:1" /><text x="1130" y="2230" font-size="10" style="fill:blue">comentarios</text><path d="M1100 1990 C1120 1990 1100 2240 1120 2240" style="fill:transparent;stroke:black" /><rect x="1186" y="2220" width="137" height="40" style="fill:green;stroke:black;stroke-width:1" /><text x="1196" y="2230" font-size="8" style="fill:white">Soy yo</text><rect x="900" y="2320" width="200" height="40" style="fill:white;stroke:black;stroke-width:1" /><text x="910" y="2330" font-size="10" style="fill:blue">persona</text><path d="M880 1690 C900 1690 880 2340 900 2340" style="fill:transparent;stroke:black" /><text x="910" y="2340" font-size="8" style="fill:black">nombre: Bisabuela p2</text><text x="910" y="2350" font-size="8" style="fill:black">apellidos: Álvarez Álvarez</text><text x="910" y="2360" font-size="8" style="fill:black">fechaNacimiento: 31 marzo 1999</text><rect x="1120" y="2320" width="200" height="40" style="fill:white;stroke:black;stroke-width:1" /><text x="1130" y="2330" font-size="10" style="fill:blue">lugarNacimiento</text><path d="M1100 2340 C1120 2340 1100 2340 1120 2340" style="fill:transparent;stroke:black" /><rect x="1186" y="2320" width="137" height="40" style="fill:green;stroke:black;stroke-width:1" /><text x="1196" y="2330" font-size="8" style="fill:white">Avilés</text><rect x="1120" y="2370" width="200" height="40" style="fill:white;stroke:black;stroke-width:1" /><text x="1130" y="2380" font-size="10" style="fill:blue">coordenadasNacimiento</text><path d="M1100 2340 C1120 2340 1100 2390 1120 2390" style="fill:transparent;stroke:black" /><rect x="1186" y="2370" width="137" height="40" style="fill:green;stroke:black;stroke-width:1" /><text x="1196" y="2380" font-size="8" style="fill:white">43.55187634443899, -5.936023851831471</text><rect x="1120" y="2420" width="200" height="40" style="fill:white;stroke:black;stroke-width:1" /><text x="1130" y="2430" font-size="10" style="fill:blue">fechaFallecimiento</text><path d="M1100 2340 C1120 2340 1100 2440 1120 2440" style="fill:transparent;stroke:black" /><rect x="1186" y="2420" width="137" height="40" style="fill:green;stroke:black;stroke-width:1" /><text x="1196" y="2430" font-size="8" style="fill:white">-</text><rect x="1120" y="2470" width="200" height="40" style="fill:white;stroke:black;stroke-width:1" /><text x="1130" y="2480" font-size="10" style="fill:blue">coordenadasFallecimiento</text><path d="M1100 2340 C1120 2340 1100 2490 1120 2490" style="fill:transparent;stroke:black" /><rect x="1186" y="2470" width="137" height="40" style="fill:green;stroke:black;stroke-width:1" /><text x="1196" y="2480" font-size="8" style="fill:white">-</text><rect x="1120" y="2520" width="200" height="40" style="fill:white;stroke:black;stroke-width:1" /><text x="1130" y="2530" font-size="10" style="fill:blue">fotografia</text><path d="M1100 2340 C1120 2340 1100 2540 1120 2540" style="fill:transparent;stroke:black" /><rect x="1120" y="2570" width="200" height="40" style="fill:white;stroke:black;stroke-width:1" /><text x="1130" y="2580" font-size="10" style="fill:blue">comentarios</text><path d="M1100 2340 C1120 2340 1100 2590 1120 2590" style="fill:transparent;stroke:black" /><rect x="1186" y="2570" width="137" height="40" style="fill:green;stroke:black;stroke-width:1" /><text x="1196" y="2580" font-size="8" style="fill:white">Soy yo</text><rect x="460" y="2770" width="200" height="40" style="fill:white;stroke:black;stroke-width:1" /><text x="470" y="2780" font-size="10" style="fill:blue">persona</text><path d="M440 40 C460 40 440 2790 460 2790" style="fill:transparent;stroke:black" /><text x="470" y="2790" font-size="8" style="fill:black">nombre: madre</text><text x="470" y="2800" font-size="8" style="fill:black">apellidos: Álvarez Álvarez</text><text x="470" y="2810" font-size="8" style="fill:black">fechaNacimiento: 31 marzo 1999</text><rect x="680" y="2770" width="200" height="40" style="fill:white;stroke:black;stroke-width:1" /><text x="690" y="2780" font-size="10" style="fill:blue">lugarNacimiento</text><path d="M660 2790 C680 2790 660 2790 680 2790" style="fill:transparent;stroke:black" /><rect x="746" y="2770" width="137" height="40" style="fill:green;stroke:black;stroke-width:1" /><text x="756" y="2780" font-size="8" style="fill:white">Avilés</text><rect x="680" y="2820" width="200" height="40" style="fill:white;stroke:black;stroke-width:1" /><text x="690" y="2830" font-size="10" style="fill:blue">coordenadasNacimiento</text><path d="M660 2790 C680 2790 660 2840 680 2840" style="fill:transparent;stroke:black" /><rect x="746" y="2820" width="137" height="40" style="fill:green;stroke:black;stroke-width:1" /><text x="756" y="2830" font-size="8" style="fill:white">43.55187634443899, -5.936023851831471</text><rect x="680" y="2870" width="200" height="40" style="fill:white;stroke:black;stroke-width:1" /><text x="690" y="2880" font-size="10" style="fill:blue">fechaFallecimiento</text><path d="M660 2790 C680 2790 660 2890 680 2890" style="fill:transparent;stroke:black" /><rect x="746" y="2870" width="137" height="40" style="fill:green;stroke:black;stroke-width:1" /><text x="756" y="2880" font-size="8" style="fill:white">-</text><rect x="680" y="2920" width="200" height="40" style="fill:white;stroke:black;stroke-width:1" /><text x="690" y="2930" font-size="10" style="fill:blue">coordenadasFallecimiento</text><path d="M660 2790 C680 2790 660 2940 680 2940" style="fill:transparent;stroke:black" /><rect x="746" y="2920" width="137" height="40" style="fill:green;stroke:black;stroke-width:1" /><text x="756" y="2930" font-size="8" style="fill:white">-</text><rect x="680" y="2970" width="200" height="40" style="fill:white;stroke:black;stroke-width:1" /><text x="690" y="2980" font-size="10" style="fill:blue">fotografia</text><path d="M660 2790 C680 2790 660 2990 680 2990" style="fill:transparent;stroke:black" /><rect x="680" y="3020" width="200" height="40" style="fill:white;stroke:black;stroke-width:1" /><text x="690" y="3030" font-size="10" style="fill:blue">comentarios</text><path d="M660 2790 C680 2790 660 3040 680 3040" style="fill:transparent;stroke:black" /><rect x="746" y="3020" width="137" height="40" style="fill:green;stroke:black;stroke-width:1" /><text x="756" y="3030" font-size="8" style="fill:white">Soy yo</text><rect x="680" y="3070" width="200" height="40" style="fill:white;stroke:black;stroke-width:1" /><text x="690" y="3080" font-size="10" style="fill:blue">persona</text><path d="M660 2790 C680 2790 660 3090 680 3090" style="fill:transparent;stroke:black" /><text x="690" y="3090" font-size="8" style="fill:black">nombre: Abuelo materno</text><text x="690" y="3100" font-size="8" style="fill:black">apellidos: Álvarez Álvarez</text><text x="690" y="3110" font-size="8" style="fill:black">fechaNacimiento: 31 marzo 1999</text><rect x="900" y="3070" width="200" height="40" style="fill:white;stroke:black;stroke-width:1" /><text x="910" y="3080" font-size="10" style="fill:blue">lugarNacimiento</text><path d="M880 3090 C900 3090 880 3090 900 3090" style="fill:transparent;stroke:black" /><rect x="966" y="3070" width="137" height="40" style="fill:green;stroke:black;stroke-width:1" /><text x="976" y="3080" font-size="8" style="fill:white">Avilés</text><rect x="900" y="3120" width="200" height="40" style="fill:white;stroke:black;stroke-width:1" /><text x="910" y="3130" font-size="10" style="fill:blue">coordenadasNacimiento</text><path d="M880 3090 C900 3090 880 3140 900 3140" style="fill:transparent;stroke:black" /><rect x="966" y="3120" width="137" height="40" style="fill:green;stroke:black;stroke-width:1" /><text x="976" y="3130" font-size="8" style="fill:white">43.55187634443899, -5.936023851831471</text><rect x="900" y="3170" width="200" height="40" style="fill:white;stroke:black;stroke-width:1" /><text x="910" y="3180" font-size="10" style="fill:blue">fechaFallecimiento</text><path d="M880 3090 C900 3090 880 3190 900 3190" style="fill:transparent;stroke:black" /><rect x="966" y="3170" width="137" height="40" style="fill:green;stroke:black;stroke-width:1" /><text x="976" y="3180" font-size="8" style="fill:white">-</text><rect x="900" y="3220" width="200" height="40" style="fill:white;stroke:black;stroke-width:1" /><text x="910" y="3230" font-size="10" style="fill:blue">coordenadasFallecimiento</text><path d="M880 3090 C900 3090 880 3240 900 3240" style="fill:transparent;stroke:black" /><rect x="966" y="3220" width="137" height="40" style="fill:green;stroke:black;stroke-width:1" /><text x="976" y="3230" font-size="8" style="fill:white">-</text><rect x="900" y="3270" width="200" height="40" style="fill:white;stroke:black;stroke-width:1" /><text x="910" y="3280" font-size="10" style="fill:blue">fotografia</text><path d="M880 3090 C900 3090 880 3290 900 3290" style="fill:transparent;stroke:black" /><rect x="900" y="3320" width="200" height="40" style="fill:white;stroke:black;stroke-width:1" /><text x="910" y="3330" font-size="10" style="fill:blue">comentarios</text><path d="M880 3090 C900 3090 880 3340 900 3340" style="fill:transparent;stroke:black" /><rect x="966" y="3320" width="137" height="40" style="fill:green;stroke:black;stroke-width:1" /><text x="976" y="3330" font-size="8" style="fill:white">Soy yo</text><rect x="900" y="3370" width="200" height="40" style="fill:white;stroke:black;stroke-width:1" /><text x="910" y="3380" font-size="10" style="fill:blue">persona</text><path d="M880 3090 C900 3090 880 3390 900 3390" style="fill:transparent;stroke:black" /><text x="910" y="3390" font-size="8" style="fill:black">nombre: Bisabuelo m1</text><text x="910" y="3400" font-size="8" style="fill:black">apellidos: Álvarez Álvarez</text><text x="910" y="3410" font-size="8" style="fill:black">fechaNacimiento: 31 marzo 1999</text><rect x="1120" y="3370" width="200" height="40" style="fill:white;stroke:black;stroke-width:1" /><text x="1130" y="3380" font-size="10" style="fill:blue">lugarNacimiento</text><path d="M1100 3390 C1120 3390 1100 3390 1120 3390" style="fill:transparent;stroke:black" /><rect x="1186" y="3370" width="137" height="40" style="fill:green;stroke:black;stroke-width:1" /><text x="1196" y="3380" font-size="8" style="fill:white">Avilés</text><rect x="1120" y="3420" width="200" height="40" style="fill:white;stroke:black;stroke-width:1" /><text x="1130" y="3430" font-size="10" style="fill:blue">coordenadasNacimiento</text><path d="M1100 3390 C1120 3390 1100 3440 1120 3440" style="fill:transparent;stroke:black" /><rect x="1186" y="3420" width="137" height="40" style="fill:green;stroke:black;stroke-width:1" /><text x="1196" y="3430" font-size="8" style="fill:white">43.55187634443899, -5.936023851831471</text><rect x="1120" y="3470" width="200" height="40" style="fill:white;stroke:black;stroke-width:1" /><text x="1130" y="3480" font-size="10" style="fill:blue">fechaFallecimiento</text><path d="M1100 3390 C1120 3390 1100 3490 1120 3490" style="fill:transparent;stroke:black" /><rect x="1186" y="3470" width="137" height="40" style="fill:green;stroke:black;stroke-width:1" /><text x="1196" y="3480" font-size="8" style="fill:white">-</text><rect x="1120" y="3520" width="200" height="40" style="fill:white;stroke:black;stroke-width:1" /><text x="1130" y="3530" font-size="10" style="fill:blue">coordenadasFallecimiento</text><path d="M1100 3390 C1120 3390 1100 3540 1120 3540" style="fill:transparent;stroke:black" /><rect x="1186" y="3520" width="137" height="40" style="fill:green;stroke:black;stroke-width:1" /><text x="1196" y="3530" font-size="8" style="fill:white">-</text><rect x="1120" y="3570" width="200" height="40" style="fill:white;stroke:black;stroke-width:1" /><text x="1130" y="3580" font-size="10" style="fill:blue">fotografia</text><path d="M1100 3390 C1120 3390 1100 3590 1120 3590" style="fill:transparent;stroke:black" /><rect x="1120" y="3620" width="200" height="40" style="fill:white;stroke:black;stroke-width:1" /><text x="1130" y="3630" font-size="10" style="fill:blue">comentarios</text><path d="M1100 3390 C1120 3390 1100 3640 1120 3640" style="fill:transparent;stroke:black" /><rect x="1186" y="3620" width="137" height="40" style="fill:green;stroke:black;stroke-width:1" /><text x="1196" y="3630" font-size="8" style="fill:white">Soy yo</text><rect x="900" y="3720" width="200" height="40" style="fill:white;stroke:black;stroke-width:1" /><text x="910" y="3730" font-size="10" style="fill:blue">persona</text><path d="M880 3090 C900 3090 880 3740 900 3740" style="fill:transparent;stroke:black" /><text x="910" y="3740" font-size="8" style="fill:black">nombre: Bisabuela m1</text><text x="910" y="3750" font-size="8" style="fill:black">apellidos: Álvarez Álvarez</text><text x="910" y="3760" font-size="8" style="fill:black">fechaNacimiento: 31 marzo 1999</text><rect x="1120" y="3720" width="200" height="40" style="fill:white;stroke:black;stroke-width:1" /><text x="1130" y="3730" font-size="10" style="fill:blue">lugarNacimiento</text><path d="M1100 3740 C1120 3740 1100 3740 1120 3740" style="fill:transparent;stroke:black" /><rect x="1186" y="3720" width="137" height="40" style="fill:green;stroke:black;stroke-width:1" /><text x="1196" y="3730" font-size="8" style="fill:white">Avilés</text><rect x="1120" y="3770" width="200" height="40" style="fill:white;stroke:black;stroke-width:1" /><text x="1130" y="3780" font-size="10" style="fill:blue">coordenadasNacimiento</text><path d="M1100 3740 C1120 3740 1100 3790 1120 3790" style="fill:transparent;stroke:black" /><rect x="1186" y="3770" width="137" height="40" style="fill:green;stroke:black;stroke-width:1" /><text x="1196" y="3780" font-size="8" style="fill:white">43.55187634443899, -5.936023851831471</text><rect x="1120" y="3820" width="200" height="40" style="fill:white;stroke:black;stroke-width:1" /><text x="1130" y="3830" font-size="10" style="fill:blue">fechaFallecimiento</text><path d="M1100 3740 C1120 3740 1100 3840 1120 3840" style="fill:transparent;stroke:black" /><rect x="1186" y="3820" width="137" height="40" style="fill:green;stroke:black;stroke-width:1" /><text x="1196" y="3830" font-size="8" style="fill:white">-</text><rect x="1120" y="3870" width="200" height="40" style="fill:white;stroke:black;stroke-width:1" /><text x="1130" y="3880" font-size="10" style="fill:blue">coordenadasFallecimiento</text><path d="M1100 3740 C1120 3740 1100 3890 1120 3890" style="fill:transparent;stroke:black" /><rect x="1186" y="3870" width="137" height="40" style="fill:green;stroke:black;stroke-width:1" /><text x="1196" y="3880" font-size="8" style="fill:white">-</text><rect x="1120" y="3920" width="200" height="40" style="fill:white;stroke:black;stroke-width:1" /><text x="1130" y="3930" font-size="10" style="fill:blue">fotografia</text><path d="M1100 3740 C1120 3740 1100 3940 1120 3940" style="fill:transparent;stroke:black" /><rect x="1120" y="3970" width="200" height="40" style="fill:white;stroke:black;stroke-width:1" /><text x="1130" y="3980" font-size="10" style="fill:blue">comentarios</text><path d="M1100 3740 C1120 3740 1100 3990 1120 3990" style="fill:transparent;stroke:black" /><rect x="1186" y="3970" width="137" height="40" style="fill:green;stroke:black;stroke-width:1" /><text x="1196" y="3980" font-size="8" style="fill:white">Soy yo</text><rect x="680" y="4120" width="200" height="40" style="fill:white;stroke:black;stroke-width:1" /><text x="690" y="4130" font-size="10" style="fill:blue">persona</text><path d="M660 2790 C680 2790 660 4140 680 4140" style="fill:transparent;stroke:black" /><text x="690" y="4140" font-size="8" style="fill:black">nombre: abuela materna</text><text x="690" y="4150" font-size="8" style="fill:black">apellidos: Álvarez Álvarez</text><text x="690" y="4160" font-size="8" style="fill:black">fechaNacimiento: 31 marzo 1999</text><rect x="900" y="4120" width="200" height="40" style="fill:white;stroke:black;stroke-width:1" /><text x="910" y="4130" font-size="10" style="fill:blue">lugarNacimiento</text><path d="M880 4140 C900 4140 880 4140 900 4140" style="fill:transparent;stroke:black" /><rect x="966" y="4120" width="137" height="40" style="fill:green;stroke:black;stroke-width:1" /><text x="976" y="4130" font-size="8" style="fill:white">Avilés</text><rect x="900" y="4170" width="200" height="40" style="fill:white;stroke:black;stroke-width:1" /><text x="910" y="4180" font-size="10" style="fill:blue">coordenadasNacimiento</text><path d="M880 4140 C900 4140 880 4190 900 4190" style="fill:transparent;stroke:black" /><rect x="966" y="4170" width="137" height="40" style="fill:green;stroke:black;stroke-width:1" /><text x="976" y="4180" font-size="8" style="fill:white">43.55187634443899, -5.936023851831471</text><rect x="900" y="4220" width="200" height="40" style="fill:white;stroke:black;stroke-width:1" /><text x="910" y="4230" font-size="10" style="fill:blue">fechaFallecimiento</text><path d="M880 4140 C900 4140 880 4240 900 4240" style="fill:transparent;stroke:black" /><rect x="966" y="4220" width="137" height="40" style="fill:green;stroke:black;stroke-width:1" /><text x="976" y="4230" font-size="8" style="fill:white">-</text><rect x="900" y="4270" width="200" height="40" style="fill:white;stroke:black;stroke-width:1" /><text x="910" y="4280" font-size="10" style="fill:blue">coordenadasFallecimiento</text><path d="M880 4140 C900 4140 880 4290 900 4290" style="fill:transparent;stroke:black" /><rect x="966" y="4270" width="137" height="40" style="fill:green;stroke:black;stroke-width:1" /><text x="976" y="4280" font-size="8" style="fill:white">-</text><rect x="900" y="4320" width="200" height="40" style="fill:white;stroke:black;stroke-width:1" /><text x="910" y="4330" font-size="10" style="fill:blue">fotografia</text><path d="M880 4140 C900 4140 880 4340 900 4340" style="fill:transparent;stroke:black" /><rect x="900" y="4370" width="200" height="40" style="fill:white;stroke:black;stroke-width:1" /><text x="910" y="4380" font-size="10" style="fill:blue">comentarios</text><path d="M880 4140 C900 4140 880 4390 900 4390" style="fill:transparent;stroke:black" /><rect x="966" y="4370" width="137" height="40" style="fill:green;stroke:black;stroke-width:1" /><text x="976" y="4380" font-size="8" style="fill:white">Soy yo</text><rect x="900" y="4420" width="200" height="40" style="fill:white;stroke:black;stroke-width:1" /><text x="910" y="4430" font-size="10" style="fill:blue">persona</text><path d="M880 4140 C900 4140 880 4440 900 4440" style="fill:transparent;stroke:black" /><text x="910" y="4440" font-size="8" style="fill:black">nombre: Bisabuelo m2</text><text x="910" y="4450" font-size="8" style="fill:black">apellidos: Álvarez Álvarez</text><text x="910" y="4460" font-size="8" style="fill:black">fechaNacimiento: 31 marzo 1999</text><rect x="1120" y="4420" width="200" height="40" style="fill:white;stroke:black;stroke-width:1" /><text x="1130" y="4430" font-size="10" style="fill:blue">lugarNacimiento</text><path d="M1100 4440 C1120 4440 1100 4440 1120 4440" style="fill:transparent;stroke:black" /><rect x="1186" y="4420" width="137" height="40" style="fill:green;stroke:black;stroke-width:1" /><text x="1196" y="4430" font-size="8" style="fill:white">Avilés</text><rect x="1120" y="4470" width="200" height="40" style="fill:white;stroke:black;stroke-width:1" /><text x="1130" y="4480" font-size="10" style="fill:blue">coordenadasNacimiento</text><path d="M1100 4440 C1120 4440 1100 4490 1120 4490" style="fill:transparent;stroke:black" /><rect x="1186" y="4470" width="137" height="40" style="fill:green;stroke:black;stroke-width:1" /><text x="1196" y="4480" font-size="8" style="fill:white">43.55187634443899, -5.936023851831471</text><rect x="1120" y="4520" width="200" height="40" style="fill:white;stroke:black;stroke-width:1" /><text x="1130" y="4530" font-size="10" style="fill:blue">fechaFallecimiento</text><path d="M1100 4440 C1120 4440 1100 4540 1120 4540" style="fill:transparent;stroke:black" /><rect x="1186" y="4520" width="137" height="40" style="fill:green;stroke:black;stroke-width:1" /><text x="1196" y="4530" font-size="8" style="fill:white">-</text><rect x="1120" y="4570" width="200" height="40" style="fill:white;stroke:black;stroke-width:1" /><text x="1130" y="4580" font-size="10" style="fill:blue">coordenadasFallecimiento</text><path d="M1100 4440 C1120 4440 1100 4590 1120 4590" style="fill:transparent;stroke:black" /><rect x="1186" y="4570" width="137" height="40" style="fill:green;stroke:black;stroke-width:1" /><text x="1196" y="4580" font-size="8" style="fill:white">-</text><rect x="1120" y="4620" width="200" height="40" style="fill:white;stroke:black;stroke-width:1" /><text x="1130" y="4630" font-size="10" style="fill:blue">fotografia</text><path d="M1100 4440 C1120 4440 1100 4640 1120 4640" style="fill:transparent;stroke:black" /><rect x="1120" y="4670" width="200" height="40" style="fill:white;stroke:black;stroke-width:1" /><text x="1130" y="4680" font-size="10" style="fill:blue">comentarios</text><path d="M1100 4440 C1120 4440 1100 4690 1120 4690" style="fill:transparent;stroke:black" /><rect x="1186" y="4670" width="137" height="40" style="fill:green;stroke:black;stroke-width:1" /><text x="1196" y="4680" font-size="8" style="fill:white">Soy yo</text><rect x="900" y="4770" width="200" height="40" style="fill:white;stroke:black;stroke-width:1" /><text x="910" y="4780" font-size="10" style="fill:blue">persona</text><path d="M880 4140 C900 4140 880 4790 900 4790" style="fill:transparent;stroke:black" /><text x="910" y="4790" font-size="8" style="fill:black">nombre: Bisabuela m2</text><text x="910" y="4800" font-size="8" style="fill:black">apellidos: Álvarez Álvarez</text><text x="910" y="4810" font-size="8" style="fill:black">fechaNacimiento: 31 marzo 1999</text><rect x="1120" y="4770" width="200" height="40" style="fill:white;stroke:black;stroke-width:1" /><text x="1130" y="4780" font-size="10" style="fill:blue">lugarNacimiento</text><path d="M1100 4790 C1120 4790 1100 4790 1120 4790" style="fill:transparent;stroke:black" /><rect x="1186" y="4770" width="137" height="40" style="fill:green;stroke:black;stroke-width:1" /><text x="1196" y="4780" font-size="8" style="fill:white">Avilés</text><rect x="1120" y="4820" width="200" height="40" style="fill:white;stroke:black;stroke-width:1" /><text x="1130" y="4830" font-size="10" style="fill:blue">coordenadasNacimiento</text><path d="M1100 4790 C1120 4790 1100 4840 1120 4840" style="fill:transparent;stroke:black" /><rect x="1186" y="4820" width="137" height="40" style="fill:green;stroke:black;stroke-width:1" /><text x="1196" y="4830" font-size="8" style="fill:white">43.55187634443899, -5.936023851831471</text><rect x="1120" y="4870" width="200" height="40" style="fill:white;stroke:black;stroke-width:1" /><text x="1130" y="4880" font-size="10" style="fill:blue">fechaFallecimiento</text><path d="M1100 4790 C1120 4790 1100 4890 1120 4890" style="fill:transparent;stroke:black" /><rect x="1186" y="4870" width="137" height="40" style="fill:green;stroke:black;stroke-width:1" /><text x="1196" y="4880" font-size="8" style="fill:white">-</text><rect x="1120" y="4920" width="200" height="40" style="fill:white;stroke:black;stroke-width:1" /><text x="1130" y="4930" font-size="10" style="fill:blue">coordenadasFallecimiento</text><path d="M1100 4790 C1120 4790 1100 4940 1120 4940" style="fill:transparent;stroke:black" /><rect x="1186" y="4920" width="137" height="40" style="fill:green;stroke:black;stroke-width:1" /><text x="1196" y="4930" font-size="8" style="fill:white">-</text><rect x="1120" y="4970" width="200" height="40" style="fill:white;stroke:black;stroke-width:1" /><text x="1130" y="4980" font-size="10" style="fill:blue">fotografia</text><path d="M1100 4790 C1120 4790 1100 4990 1120 4990" style="fill:transparent;stroke:black" /><rect x="1120" y="5020" width="200" height="40" style="fill:white;stroke:black;stroke-width:1" /><text x="1130" y="5030" font-size="10" style="fill:blue">comentarios</text><path d="M1100 4790 C1120 4790 1100 5040 1120 5040" style="fill:transparent;stroke:black" /><rect x="1186" y="5020" width="137" height="40" style="fill:green;stroke:black;stroke-width:1" /><text x="1196" y="5030" font-size="8" style="fill:white">Soy yo</text></svg>